<svg width="167" height="134" viewBox="0 0 167 134" fill="none" xmlns="http://www.w3.org/2000/svg">
<rect x="0.33264" y="0.33264" width="165.572" height="133.335" rx="11.6674" fill="#F8FAFC" fill-opacity="0.4"/>
<rect x="0.33264" y="0.33264" width="165.572" height="133.335" rx="11.6674" stroke="#E2E8F0" stroke-width="0.66528"/>
<mask id="path-2-inside-1_40_678" fill="white">
<path d="M11.3098 11.3098H154.927V26.6321H11.3098V11.3098Z"/>
</mask>
<path d="M154.927 26.6321V25.9668H11.3098V26.6321V27.2973H154.927V26.6321Z" fill="#CBD5E1" mask="url(#path-2-inside-1_40_678)"/>
<path d="M11.7303 13.4714H12.9919L14.3243 16.7222H14.381L15.7135 13.4714H16.975V18.3098H15.9828V15.1606H15.9426L14.6905 18.2862H14.0148L12.7627 15.1488H12.7225V18.3098H11.7303V13.4714ZM18.8337 18.3783C18.6022 18.3783 18.3959 18.3382 18.2147 18.2578C18.0336 18.1759 17.8903 18.0555 17.7848 17.8964C17.6808 17.7357 17.6288 17.5357 17.6288 17.2963C17.6288 17.0947 17.6659 16.9254 17.7399 16.7884C17.8139 16.6513 17.9147 16.5411 18.0423 16.4576C18.1699 16.3741 18.3148 16.3111 18.477 16.2686C18.6408 16.2261 18.8125 16.1962 18.992 16.1788C19.2031 16.1568 19.3732 16.1363 19.5023 16.1174C19.6315 16.0969 19.7252 16.067 19.7834 16.0276C19.8417 15.9883 19.8709 15.93 19.8709 15.8528V15.8386C19.8709 15.689 19.8236 15.5733 19.7291 15.4914C19.6362 15.4095 19.5039 15.3685 19.3322 15.3685C19.1511 15.3685 19.007 15.4087 18.8999 15.489C18.7928 15.5677 18.7219 15.667 18.6872 15.7867L17.7564 15.7111C17.8037 15.4906 17.8966 15.3 18.0352 15.1393C18.1738 14.9771 18.3526 14.8527 18.5715 14.7661C18.792 14.6779 19.0471 14.6338 19.3369 14.6338C19.5385 14.6338 19.7315 14.6574 19.9157 14.7046C20.1016 14.7519 20.2662 14.8251 20.4095 14.9244C20.5544 15.0236 20.6686 15.1512 20.7521 15.3071C20.8355 15.4614 20.8773 15.6465 20.8773 15.8623V18.3098H19.9228V17.8066H19.8945C19.8362 17.92 19.7582 18.02 19.6606 18.1066C19.5629 18.1917 19.4456 18.2586 19.3086 18.3075C19.1716 18.3547 19.0133 18.3783 18.8337 18.3783ZM19.1219 17.6838C19.27 17.6838 19.4007 17.6546 19.5141 17.5963C19.6275 17.5365 19.7165 17.4562 19.7811 17.3554C19.8457 17.2546 19.8779 17.1404 19.8779 17.0128V16.6277C19.8464 16.6482 19.8031 16.6671 19.748 16.6844C19.6945 16.7002 19.6338 16.7151 19.5661 16.7293C19.4984 16.7419 19.4306 16.7537 19.3629 16.7647C19.2952 16.7742 19.2338 16.7829 19.1786 16.7907C19.0605 16.8081 18.9574 16.8356 18.8692 16.8734C18.781 16.9112 18.7124 16.9624 18.6636 17.027C18.6148 17.09 18.5904 17.1687 18.5904 17.2632C18.5904 17.4003 18.64 17.505 18.7392 17.5774C18.84 17.6483 18.9676 17.6838 19.1219 17.6838ZM21.6581 18.3098V14.681H22.6338V15.3142H22.6716C22.7377 15.0889 22.8488 14.9188 23.0047 14.8039C23.1606 14.6873 23.3402 14.629 23.5434 14.629C23.5938 14.629 23.6481 14.6322 23.7064 14.6385C23.7646 14.6448 23.8158 14.6535 23.8599 14.6645V15.5575C23.8127 15.5433 23.7473 15.5307 23.6638 15.5197C23.5804 15.5087 23.504 15.5032 23.4347 15.5032C23.2866 15.5032 23.1543 15.5355 23.0378 15.6C22.9228 15.663 22.8315 15.7512 22.7637 15.8646C22.6976 15.978 22.6645 16.1088 22.6645 16.2568V18.3098H21.6581ZM26.4923 14.681V15.437H24.307V14.681H26.4923ZM24.8032 13.8116H25.8096V17.1947C25.8096 17.2876 25.8238 17.3601 25.8521 17.4121C25.8805 17.4625 25.9198 17.4979 25.9702 17.5184C26.0222 17.5389 26.0821 17.5491 26.1498 17.5491C26.197 17.5491 26.2443 17.5452 26.2915 17.5373C26.3388 17.5278 26.375 17.5207 26.4002 17.516L26.5585 18.2649C26.5081 18.2807 26.4372 18.2988 26.3459 18.3193C26.2545 18.3413 26.1435 18.3547 26.0128 18.3594C25.7702 18.3689 25.5576 18.3366 25.3749 18.2626C25.1938 18.1885 25.0528 18.0736 24.952 17.9176C24.8512 17.7617 24.8016 17.5648 24.8032 17.327V13.8116ZM28.7627 18.3807C28.3894 18.3807 28.0681 18.3051 27.7988 18.1539C27.5311 18.0011 27.3247 17.7853 27.1798 17.5066C27.0349 17.2262 26.9625 16.8947 26.9625 16.512C26.9625 16.1387 27.0349 15.8111 27.1798 15.5292C27.3247 15.2472 27.5287 15.0275 27.7917 14.87C28.0563 14.7125 28.3666 14.6338 28.7225 14.6338C28.9619 14.6338 29.1848 14.6724 29.3911 14.7495C29.599 14.8251 29.7802 14.9393 29.9345 15.0921C30.0904 15.2449 30.2117 15.437 30.2983 15.6685C30.385 15.8985 30.4283 16.1678 30.4283 16.4765V16.7529H27.3641V16.1292H29.4809C29.4809 15.9843 29.4494 15.856 29.3864 15.7441C29.3234 15.6323 29.236 15.5449 29.1242 15.4819C29.0139 15.4173 28.8856 15.385 28.7391 15.385C28.5863 15.385 28.4509 15.4205 28.3327 15.4914C28.2162 15.5607 28.1248 15.6544 28.0587 15.7725C27.9925 15.889 27.9587 16.019 27.9571 16.1623V16.7553C27.9571 16.9348 27.9902 17.09 28.0563 17.2207C28.124 17.3514 28.2193 17.4522 28.3422 17.5231C28.465 17.594 28.6107 17.6294 28.7792 17.6294C28.8911 17.6294 28.9934 17.6137 29.0864 17.5822C29.1793 17.5507 29.2588 17.5034 29.325 17.4404C29.3911 17.3774 29.4415 17.3002 29.4762 17.2089L30.407 17.2703C30.3598 17.494 30.2629 17.6893 30.1164 17.8562C29.9715 18.0216 29.7841 18.1507 29.5541 18.2437C29.3258 18.335 29.062 18.3807 28.7627 18.3807ZM34.1043 15.7158L33.1829 15.7725C33.1672 15.6937 33.1333 15.6229 33.0814 15.5599C33.0294 15.4953 32.9609 15.4441 32.8758 15.4063C32.7923 15.3669 32.6923 15.3472 32.5758 15.3472C32.4199 15.3472 32.2883 15.3803 32.1812 15.4465C32.0741 15.511 32.0206 15.5977 32.0206 15.7063C32.0206 15.793 32.0552 15.8662 32.1245 15.9261C32.1938 15.9859 32.3128 16.0339 32.4813 16.0702L33.1381 16.2025C33.4909 16.2749 33.7539 16.3915 33.9271 16.5521C34.1004 16.7128 34.187 16.9238 34.187 17.1853C34.187 17.4231 34.1169 17.6318 33.9767 17.8113C33.8381 17.9909 33.6476 18.1311 33.405 18.2319C33.164 18.3311 32.8861 18.3807 32.5711 18.3807C32.0907 18.3807 31.708 18.2807 31.4229 18.0807C31.1394 17.8791 30.9732 17.605 30.9244 17.2585L31.9143 17.2065C31.9442 17.353 32.0167 17.4648 32.1316 17.542C32.2466 17.6176 32.3939 17.6554 32.5734 17.6554C32.7498 17.6554 32.8916 17.6215 32.9987 17.5538C33.1073 17.4845 33.1625 17.3955 33.164 17.2869C33.1625 17.1955 33.1239 17.1207 33.0483 17.0624C32.9727 17.0026 32.8561 16.9569 32.6986 16.9254L32.0702 16.8002C31.7158 16.7293 31.452 16.6065 31.2788 16.4316C31.1071 16.2568 31.0213 16.0339 31.0213 15.763C31.0213 15.5299 31.0843 15.3291 31.2103 15.1606C31.3378 14.9921 31.5166 14.8621 31.7465 14.7708C31.9781 14.6794 32.249 14.6338 32.5592 14.6338C33.0176 14.6338 33.3782 14.7306 33.6413 14.9244C33.9059 15.1181 34.0602 15.3819 34.1043 15.7158ZM35.9146 17.6483L35.8886 17.9082C35.8681 18.1161 35.8287 18.3232 35.7705 18.5295C35.7138 18.7374 35.6539 18.9256 35.5909 19.0942C35.5295 19.2627 35.4799 19.395 35.4421 19.4911H34.79C34.8137 19.3981 34.8459 19.2682 34.8869 19.1013C34.9278 18.9359 34.9664 18.75 35.0027 18.5437C35.0389 18.3374 35.0617 18.1271 35.0712 17.9129L35.083 17.6483H35.9146ZM39.9048 18.376C39.5709 18.376 39.2733 18.3145 39.0118 18.1917C38.7519 18.0688 38.5456 17.8995 38.3928 17.6838C38.2401 17.468 38.1605 17.2207 38.1542 16.9419H39.1465C39.1575 17.1294 39.2363 17.2813 39.3827 17.3979C39.5292 17.5144 39.7032 17.5727 39.9048 17.5727C40.0655 17.5727 40.2072 17.5373 40.3301 17.4664C40.4545 17.394 40.5514 17.2939 40.6207 17.1664C40.6916 17.0372 40.727 16.8892 40.727 16.7222C40.727 16.5521 40.6908 16.4025 40.6183 16.2733C40.5474 16.1442 40.449 16.0434 40.323 15.9709C40.197 15.8985 40.0529 15.8615 39.8907 15.8599C39.7489 15.8599 39.6111 15.889 39.4772 15.9473C39.3449 16.0056 39.2418 16.0851 39.1677 16.1859L38.2582 16.0229L38.4873 13.4714H41.4452V14.3077H39.3308L39.2055 15.5197H39.2339C39.3189 15.4 39.4473 15.3008 39.619 15.222C39.7907 15.1433 39.9828 15.1039 40.1954 15.1039C40.4868 15.1039 40.7467 15.1724 40.9751 15.3094C41.2034 15.4465 41.3838 15.6347 41.5161 15.8741C41.6484 16.1119 41.7137 16.386 41.7122 16.6962C41.7137 17.0223 41.6381 17.3121 41.4854 17.5656C41.3342 17.8176 41.1223 18.0161 40.8498 18.161C40.5789 18.3043 40.2639 18.376 39.9048 18.376ZM45.312 18.3689C45.0364 18.3689 44.7867 18.298 44.5631 18.1563C44.341 18.0129 44.1646 17.8027 44.0339 17.5255C43.9047 17.2467 43.8402 16.9049 43.8402 16.5001C43.8402 16.0843 43.9071 15.7386 44.041 15.463C44.1749 15.1858 44.3528 14.9787 44.5749 14.8417C44.7986 14.7031 45.0435 14.6338 45.3096 14.6338C45.5128 14.6338 45.6821 14.6684 45.8176 14.7377C45.9546 14.8054 46.0649 14.8905 46.1483 14.9929C46.2334 15.0937 46.298 15.1929 46.3421 15.2905H46.3728V13.4714H47.3768V18.3098H46.3846V17.7286H46.3421C46.2948 17.8294 46.2279 17.9295 46.1412 18.0287C46.0562 18.1263 45.9452 18.2074 45.8081 18.272C45.6727 18.3366 45.5073 18.3689 45.312 18.3689ZM45.6309 17.568C45.7932 17.568 45.9302 17.5239 46.042 17.4357C46.1554 17.3459 46.242 17.2207 46.3019 17.0601C46.3633 16.8994 46.394 16.7112 46.394 16.4954C46.394 16.2796 46.3641 16.0922 46.3043 15.9331C46.2444 15.7741 46.1578 15.6512 46.0444 15.5646C45.931 15.478 45.7932 15.4347 45.6309 15.4347C45.4656 15.4347 45.3262 15.4795 45.2128 15.5693C45.0994 15.6591 45.0135 15.7835 44.9553 15.9426C44.897 16.1017 44.8679 16.2859 44.8679 16.4954C44.8679 16.7065 44.897 16.8931 44.9553 17.0553C45.0151 17.216 45.101 17.342 45.2128 17.4333C45.3262 17.5231 45.4656 17.568 45.6309 17.568ZM49.858 18.3807C49.4848 18.3807 49.1635 18.3051 48.8941 18.1539C48.6264 18.0011 48.4201 17.7853 48.2752 17.5066C48.1303 17.2262 48.0578 16.8947 48.0578 16.512C48.0578 16.1387 48.1303 15.8111 48.2752 15.5292C48.4201 15.2472 48.624 15.0275 48.8871 14.87C49.1517 14.7125 49.4619 14.6338 49.8179 14.6338C50.0573 14.6338 50.2801 14.6724 50.4865 14.7495C50.6944 14.8251 50.8755 14.9393 51.0298 15.0921C51.1858 15.2449 51.307 15.437 51.3937 15.6685C51.4803 15.8985 51.5236 16.1678 51.5236 16.4765V16.7529H48.4594V16.1292H50.5762C50.5762 15.9843 50.5447 15.856 50.4817 15.7441C50.4187 15.6323 50.3313 15.5449 50.2195 15.4819C50.1093 15.4173 49.9809 15.385 49.8344 15.385C49.6816 15.385 49.5462 15.4205 49.4281 15.4914C49.3115 15.5607 49.2202 15.6544 49.154 15.7725C49.0879 15.889 49.054 16.019 49.0524 16.1623V16.7553C49.0524 16.9348 49.0855 17.09 49.1517 17.2207C49.2194 17.3514 49.3147 17.4522 49.4375 17.5231C49.5604 17.594 49.7061 17.6294 49.8746 17.6294C49.9864 17.6294 50.0888 17.6137 50.1817 17.5822C50.2746 17.5507 50.3542 17.5034 50.4203 17.4404C50.4865 17.3774 50.5369 17.3002 50.5715 17.2089L51.5023 17.2703C51.4551 17.494 51.3582 17.6893 51.2118 17.8562C51.0669 18.0216 50.8794 18.1507 50.6495 18.2437C50.4211 18.335 50.1573 18.3807 49.858 18.3807ZM53.7201 18.3098V14.681H54.6793V15.3213H54.7218C54.7974 15.1086 54.9234 14.9409 55.0998 14.818C55.2762 14.6952 55.4873 14.6338 55.733 14.6338C55.9818 14.6338 56.1937 14.696 56.3685 14.8204C56.5433 14.9433 56.6599 15.1102 56.7182 15.3213H56.756C56.83 15.1134 56.9639 14.9472 57.1576 14.8228C57.3529 14.6968 57.5836 14.6338 57.8498 14.6338C58.1884 14.6338 58.4633 14.7417 58.6743 14.9574C58.8869 15.1716 58.9932 15.4756 58.9932 15.8694V18.3098H57.9892V16.0678C57.9892 15.8662 57.9356 15.715 57.8285 15.6142C57.7214 15.5134 57.5876 15.463 57.4269 15.463C57.2442 15.463 57.1017 15.5213 56.9993 15.6378C56.8969 15.7528 56.8457 15.9048 56.8457 16.0938V18.3098H55.87V16.0465C55.87 15.8686 55.8188 15.7268 55.7165 15.6213C55.6157 15.5158 55.4826 15.463 55.3172 15.463C55.2054 15.463 55.1046 15.4914 55.0148 15.5481C54.9266 15.6032 54.8565 15.6811 54.8045 15.7819C54.7526 15.8812 54.7266 15.9977 54.7266 16.1316V18.3098H53.7201ZM60.823 18.3783C60.5915 18.3783 60.3851 18.3382 60.204 18.2578C60.0229 18.1759 59.8796 18.0555 59.774 17.8964C59.6701 17.7357 59.6181 17.5357 59.6181 17.2963C59.6181 17.0947 59.6551 16.9254 59.7292 16.7884C59.8032 16.6513 59.904 16.5411 60.0316 16.4576C60.1591 16.3741 60.304 16.3111 60.4663 16.2686C60.6301 16.2261 60.8017 16.1962 60.9813 16.1788C61.1923 16.1568 61.3624 16.1363 61.4916 16.1174C61.6207 16.0969 61.7144 16.067 61.7727 16.0276C61.831 15.9883 61.8601 15.93 61.8601 15.8528V15.8386C61.8601 15.689 61.8129 15.5733 61.7184 15.4914C61.6255 15.4095 61.4932 15.3685 61.3215 15.3685C61.1404 15.3685 60.9962 15.4087 60.8891 15.489C60.782 15.5677 60.7112 15.667 60.6765 15.7867L59.7457 15.7111C59.7929 15.4906 59.8859 15.3 60.0245 15.1393C60.1631 14.9771 60.3418 14.8527 60.5608 14.7661C60.7813 14.6779 61.0364 14.6338 61.3262 14.6338C61.5278 14.6338 61.7207 14.6574 61.905 14.7046C62.0909 14.7519 62.2555 14.8251 62.3988 14.9244C62.5437 15.0236 62.6579 15.1512 62.7413 15.3071C62.8248 15.4614 62.8666 15.6465 62.8666 15.8623V18.3098H61.9121V17.8066H61.8838C61.8255 17.92 61.7475 18.02 61.6499 18.1066C61.5522 18.1917 61.4349 18.2586 61.2979 18.3075C61.1608 18.3547 61.0025 18.3783 60.823 18.3783ZM61.1112 17.6838C61.2593 17.6838 61.39 17.6546 61.5034 17.5963C61.6168 17.5365 61.7058 17.4562 61.7704 17.3554C61.8349 17.2546 61.8672 17.1404 61.8672 17.0128V16.6277C61.8357 16.6482 61.7924 16.6671 61.7373 16.6844C61.6837 16.7002 61.6231 16.7151 61.5554 16.7293C61.4876 16.7419 61.4199 16.7537 61.3522 16.7647C61.2845 16.7742 61.223 16.7829 61.1679 16.7907C61.0498 16.8081 60.9466 16.8356 60.8584 16.8734C60.7702 16.9112 60.7017 16.9624 60.6529 17.027C60.6041 17.09 60.5797 17.1687 60.5797 17.2632C60.5797 17.4003 60.6293 17.505 60.7285 17.5774C60.8293 17.6483 60.9569 17.6838 61.1112 17.6838ZM63.6474 18.3098V14.681H64.6231V15.3142H64.6609C64.727 15.0889 64.8381 14.9188 64.994 14.8039C65.1499 14.6873 65.3295 14.629 65.5326 14.629C65.583 14.629 65.6374 14.6322 65.6956 14.6385C65.7539 14.6448 65.8051 14.6535 65.8492 14.6645V15.5575C65.802 15.5433 65.7366 15.5307 65.6531 15.5197C65.5696 15.5087 65.4933 15.5032 65.424 15.5032C65.2759 15.5032 65.1436 15.5355 65.0271 15.6C64.9121 15.663 64.8207 15.7512 64.753 15.8646C64.6869 15.978 64.6538 16.1088 64.6538 16.2568V18.3098H63.6474ZM66.3507 18.3098V17.7097L68.1272 15.5103V15.4843H66.4121V14.681H69.3392V15.3354L67.6713 17.4806V17.5066H69.4006V18.3098H66.3507ZM71.7058 18.3807C71.3389 18.3807 71.0215 18.3027 70.7538 18.1468C70.4876 17.9893 70.282 17.7704 70.1371 17.49C69.9922 17.2081 69.9198 16.8813 69.9198 16.5096C69.9198 16.1347 69.9922 15.8071 70.1371 15.5268C70.282 15.2449 70.4876 15.0259 70.7538 14.87C71.0215 14.7125 71.3389 14.6338 71.7058 14.6338C72.0728 14.6338 72.3894 14.7125 72.6556 14.87C72.9233 15.0259 73.1296 15.2449 73.2745 15.5268C73.4194 15.8071 73.4919 16.1347 73.4919 16.5096C73.4919 16.8813 73.4194 17.2081 73.2745 17.49C73.1296 17.7704 72.9233 17.9893 72.6556 18.1468C72.3894 18.3027 72.0728 18.3807 71.7058 18.3807ZM71.7106 17.6011C71.8775 17.6011 72.0169 17.5538 72.1287 17.4593C72.2406 17.3632 72.3248 17.2325 72.3815 17.0671C72.4398 16.9018 72.4689 16.7136 72.4689 16.5025C72.4689 16.2915 72.4398 16.1032 72.3815 15.9379C72.3248 15.7725 72.2406 15.6418 72.1287 15.5457C72.0169 15.4496 71.8775 15.4016 71.7106 15.4016C71.542 15.4016 71.4003 15.4496 71.2853 15.5457C71.1719 15.6418 71.0861 15.7725 71.0278 15.9379C70.9711 16.1032 70.9428 16.2915 70.9428 16.5025C70.9428 16.7136 70.9711 16.9018 71.0278 17.0671C71.0861 17.2325 71.1719 17.3632 71.2853 17.4593C71.4003 17.5538 71.542 17.6011 71.7106 17.6011Z" fill="#94A3B8"/>
<path d="M53.0952 63.0044H51.3035V57.1983H53.1746C53.7378 57.1983 54.2197 57.3146 54.6204 57.547C55.0211 57.7776 55.3282 58.1093 55.5418 58.5421C55.7553 58.973 55.8621 59.489 55.8621 60.09C55.8621 60.6948 55.7544 61.2155 55.5389 61.6521C55.3235 62.0868 55.0097 62.4213 54.5977 62.6557C54.1857 62.8882 53.6849 63.0044 53.0952 63.0044ZM52.0065 62.3807H53.0498C53.5299 62.3807 53.9277 62.2881 54.2433 62.1029C54.559 61.9176 54.7943 61.654 54.9493 61.3119C55.1042 60.9698 55.1817 60.5625 55.1817 60.09C55.1817 59.6213 55.1052 59.2178 54.9521 58.8795C54.799 58.5393 54.5703 58.2785 54.266 58.097C53.9617 57.9137 53.5828 57.822 53.1292 57.822H52.0065V62.3807ZM56.9508 63.0044V58.6498H57.6198V63.0044H56.9508ZM56.9848 58.0602L57.6765 56.7447H58.459L57.5745 58.0602H56.9848ZM60.1267 63.1065C59.8507 63.1065 59.6003 63.0545 59.3754 62.9505C59.1505 62.8447 58.9719 62.6925 58.8396 62.4941C58.7073 62.2938 58.6411 62.0518 58.6411 61.7683C58.6411 61.5189 58.6903 61.3166 58.7886 61.1616C58.8868 61.0048 59.0182 60.8819 59.1826 60.7931C59.347 60.7043 59.5285 60.6381 59.7269 60.5946C59.9273 60.5493 60.1286 60.5134 60.3308 60.4869C60.5954 60.4529 60.8099 60.4274 60.9743 60.4104C61.1407 60.3915 61.2616 60.3603 61.3372 60.3168C61.4147 60.2733 61.4535 60.1977 61.4535 60.09V60.0673C61.4535 59.7876 61.3769 59.5703 61.2238 59.4153C61.0726 59.2603 60.843 59.1828 60.5349 59.1828C60.2155 59.1828 59.9651 59.2527 59.7836 59.3926C59.6022 59.5325 59.4746 59.6818 59.4009 59.8405L58.7659 59.6137C58.8793 59.3491 59.0305 59.1431 59.2195 58.9957C59.4104 58.8464 59.6183 58.7424 59.8432 58.6839C60.07 58.6234 60.293 58.5931 60.5122 58.5931C60.6521 58.5931 60.8127 58.6101 60.9942 58.6442C61.1775 58.6763 61.3542 58.7434 61.5243 58.8455C61.6963 58.9475 61.839 59.1015 61.9524 59.3076C62.0658 59.5136 62.1225 59.7895 62.1225 60.1354V63.0044H61.4535V62.4147H61.4194C61.3741 62.5092 61.2985 62.6103 61.1926 62.7181C61.0868 62.8258 60.946 62.9175 60.7702 62.9931C60.5944 63.0687 60.3799 63.1065 60.1267 63.1065ZM60.2287 62.5054C60.4933 62.5054 60.7164 62.4535 60.8978 62.3495C61.0811 62.2456 61.2191 62.1114 61.3117 61.9469C61.4062 61.7825 61.4535 61.6096 61.4535 61.4281V60.8158C61.4251 60.8498 61.3627 60.881 61.2663 60.9093C61.1718 60.9358 61.0622 60.9594 60.9375 60.9802C60.8146 60.9991 60.6946 61.0161 60.5774 61.0312C60.4621 61.0445 60.3686 61.0558 60.2968 61.0653C60.1229 61.0879 59.9604 61.1248 59.8092 61.1758C59.6598 61.225 59.5389 61.2996 59.4463 61.3998C59.3556 61.4981 59.3102 61.6323 59.3102 61.8024C59.3102 62.0348 59.3962 62.2106 59.5682 62.3297C59.7421 62.4468 59.9622 62.5054 60.2287 62.5054ZM68.6735 59.6251L68.0725 59.7952C68.0347 59.695 67.9789 59.5977 67.9052 59.5032C67.8334 59.4068 67.7351 59.3274 67.6104 59.265C67.4856 59.2027 67.3259 59.1715 67.1312 59.1715C66.8648 59.1715 66.6427 59.2329 66.465 59.3558C66.2893 59.4767 66.2014 59.6307 66.2014 59.8179C66.2014 59.9842 66.2618 60.1155 66.3828 60.2119C66.5038 60.3083 66.6928 60.3886 66.9498 60.4529L67.5962 60.6117C67.9855 60.7062 68.2756 60.8507 68.4665 61.0454C68.6574 61.2382 68.7529 61.4867 68.7529 61.791C68.7529 62.0405 68.681 62.2635 68.5374 62.4601C68.3957 62.6566 68.1972 62.8116 67.9421 62.925C67.6869 63.0384 67.3902 63.0951 67.0519 63.0951C66.6077 63.0951 66.2401 62.9987 65.9491 62.8059C65.658 62.6132 65.4737 62.3316 65.3962 61.9611L66.0313 61.8024C66.0917 62.0367 66.2061 62.2125 66.3743 62.3297C66.5444 62.4468 66.7665 62.5054 67.0405 62.5054C67.3524 62.5054 67.6 62.4393 67.7833 62.307C67.9685 62.1728 68.0611 62.0121 68.0611 61.825C68.0611 61.6738 68.0082 61.5472 67.9024 61.4451C67.7965 61.3412 67.634 61.2637 67.4147 61.2127L66.689 61.0426C66.2902 60.9481 65.9972 60.8016 65.8101 60.6032C65.6249 60.4028 65.5323 60.1524 65.5323 59.8519C65.5323 59.6062 65.6013 59.3888 65.7393 59.1998C65.8791 59.0108 66.0691 58.8625 66.3091 58.7547C66.551 58.647 66.8251 58.5931 67.1312 58.5931C67.5622 58.5931 67.9005 58.6876 68.1462 58.8766C68.3938 59.0656 68.5695 59.3151 68.6735 59.6251ZM69.76 63.0044V58.6498H70.4291V63.0044H69.76ZM70.1002 57.9241C69.9698 57.9241 69.8573 57.8797 69.7628 57.7908C69.6702 57.702 69.6239 57.5952 69.6239 57.4705C69.6239 57.3457 69.6702 57.239 69.7628 57.1501C69.8573 57.0613 69.9698 57.0169 70.1002 57.0169C70.2306 57.0169 70.3421 57.0613 70.4347 57.1501C70.5292 57.239 70.5765 57.3457 70.5765 57.4705C70.5765 57.5952 70.5292 57.702 70.4347 57.7908C70.3421 57.8797 70.2306 57.9241 70.1002 57.9241ZM72.3235 60.3849V63.0044H71.6545V58.6498H72.3009V59.3302H72.3576C72.4596 59.1091 72.6146 58.9314 72.8225 58.7973C73.0304 58.6612 73.2988 58.5931 73.6276 58.5931C73.9225 58.5931 74.1805 58.6536 74.4016 58.7746C74.6227 58.8936 74.7947 59.0751 74.9176 59.3189C75.0404 59.5608 75.1018 59.867 75.1018 60.2374V63.0044H74.4328V60.2828C74.4328 59.9407 74.344 59.6742 74.1663 59.4833C73.9886 59.2905 73.7448 59.1942 73.4349 59.1942C73.2213 59.1942 73.0304 59.2405 72.8622 59.3331C72.6959 59.4257 72.5645 59.5608 72.4681 59.7385C72.3717 59.9161 72.3235 60.1316 72.3235 60.3849ZM80.3388 63.0951C79.9306 63.0951 79.579 62.9987 79.2842 62.8059C78.9893 62.6132 78.7625 62.3476 78.6038 62.0093C78.445 61.671 78.3656 61.2845 78.3656 60.8498C78.3656 60.4075 78.4469 60.0173 78.6094 59.6789C78.7739 59.3387 79.0026 59.0732 79.2955 58.8823C79.5904 58.6895 79.9343 58.5931 80.3275 58.5931C80.6336 58.5931 80.9096 58.6498 81.1553 58.7632C81.401 58.8766 81.6023 59.0354 81.7591 59.2395C81.916 59.4436 82.0133 59.6818 82.0511 59.9539H81.3821C81.331 59.7555 81.2176 59.5797 81.0419 59.4266C80.868 59.2716 80.6336 59.1942 80.3388 59.1942C80.078 59.1942 79.8493 59.2622 79.6527 59.3983C79.4581 59.5325 79.3059 59.7224 79.1963 59.9681C79.0886 60.2119 79.0347 60.4983 79.0347 60.8271C79.0347 61.1635 79.0876 61.4565 79.1935 61.706C79.3012 61.9554 79.4524 62.1492 79.6471 62.2871C79.8436 62.4251 80.0742 62.4941 80.3388 62.4941C80.5127 62.4941 80.6705 62.4639 80.8122 62.4034C80.954 62.3429 81.074 62.256 81.1723 62.1426C81.2706 62.0292 81.3405 61.8931 81.3821 61.7343H82.0511C82.0133 61.9914 81.9198 62.2229 81.7705 62.4289C81.623 62.633 81.4274 62.7955 81.1836 62.9165C80.9417 63.0356 80.6601 63.0951 80.3388 63.0951ZM84.7982 63.0951C84.4051 63.0951 84.0602 63.0016 83.7635 62.8144C83.4686 62.6273 83.2381 62.3656 83.0717 62.0292C82.9073 61.6927 82.8251 61.2996 82.8251 60.8498C82.8251 60.3962 82.9073 60.0002 83.0717 59.6619C83.2381 59.3236 83.4686 59.0609 83.7635 58.8738C84.0602 58.6867 84.4051 58.5931 84.7982 58.5931C85.1914 58.5931 85.5353 58.6867 85.8302 58.8738C86.1269 59.0609 86.3575 59.3236 86.5219 59.6619C86.6882 60.0002 86.7714 60.3962 86.7714 60.8498C86.7714 61.2996 86.6882 61.6927 86.5219 62.0292C86.3575 62.3656 86.1269 62.6273 85.8302 62.8144C85.5353 63.0016 85.1914 63.0951 84.7982 63.0951ZM84.7982 62.4941C85.0969 62.4941 85.3426 62.4175 85.5353 62.2645C85.7281 62.1114 85.8708 61.9101 85.9634 61.6606C86.056 61.4111 86.1023 61.1409 86.1023 60.8498C86.1023 60.5587 86.056 60.2875 85.9634 60.0362C85.8708 59.7848 85.7281 59.5816 85.5353 59.4266C85.3426 59.2716 85.0969 59.1942 84.7982 59.1942C84.4996 59.1942 84.2539 59.2716 84.0611 59.4266C83.8684 59.5816 83.7257 59.7848 83.6331 60.0362C83.5405 60.2875 83.4941 60.5587 83.4941 60.8498C83.4941 61.1409 83.5405 61.4111 83.6331 61.6606C83.7257 61.9101 83.8684 62.1114 84.0611 62.2645C84.2539 62.4175 84.4996 62.4941 84.7982 62.4941ZM88.4618 60.3849V63.0044H87.7927V58.6498H88.4391V59.3302H88.4958C88.5979 59.1091 88.7528 58.9314 88.9607 58.7973C89.1686 58.6612 89.437 58.5931 89.7659 58.5931C90.0607 58.5931 90.3187 58.6536 90.5398 58.7746C90.761 58.8936 90.9329 59.0751 91.0558 59.3189C91.1786 59.5608 91.2401 59.867 91.2401 60.2374V63.0044H90.571V60.2828C90.571 59.9407 90.4822 59.6742 90.3045 59.4833C90.1269 59.2905 89.883 59.1942 89.5731 59.1942C89.3595 59.1942 89.1686 59.2405 89.0004 59.3331C88.8341 59.4257 88.7027 59.5608 88.6064 59.7385C88.51 59.9161 88.4618 60.1316 88.4618 60.3849ZM94.3564 58.6498V59.2168H92.0998V58.6498H94.3564ZM92.7575 57.6066H93.4266V61.757C93.4266 61.946 93.454 62.0877 93.5088 62.1822C93.5655 62.2749 93.6373 62.3372 93.7242 62.3694C93.8131 62.3996 93.9066 62.4147 94.0049 62.4147C94.0786 62.4147 94.1391 62.4109 94.1863 62.4034C94.2336 62.3939 94.2714 62.3864 94.2997 62.3807L94.4358 62.9817C94.3905 62.9987 94.3271 63.0157 94.2459 63.0327C94.1646 63.0516 94.0616 63.0611 93.9369 63.0611C93.7479 63.0611 93.5626 63.0205 93.3812 62.9392C93.2016 62.8579 93.0523 62.7341 92.9333 62.5678C92.8161 62.4015 92.7575 62.1917 92.7575 61.9384V57.6066ZM97.1418 63.0951C96.7222 63.0951 96.3603 63.0025 96.056 62.8173C95.7536 62.6302 95.5202 62.3694 95.3558 62.0348C95.1932 61.6984 95.112 61.3072 95.112 60.8611C95.112 60.4151 95.1932 60.022 95.3558 59.6818C95.5202 59.3397 95.7489 59.0732 96.0418 58.8823C96.3367 58.6895 96.6807 58.5931 97.0738 58.5931C97.3006 58.5931 97.5246 58.6309 97.7457 58.7065C97.9668 58.7821 98.1681 58.905 98.3495 59.0751C98.531 59.2433 98.6756 59.4663 98.7833 59.7441C98.891 60.022 98.9449 60.3641 98.9449 60.7704V61.0539H95.5882V60.4756H98.2645C98.2645 60.2299 98.2153 60.0106 98.1171 59.8179C98.0207 59.6251 97.8827 59.4729 97.7032 59.3614C97.5255 59.2499 97.3157 59.1942 97.0738 59.1942C96.8073 59.1942 96.5767 59.2603 96.382 59.3926C96.1893 59.523 96.0409 59.6931 95.937 59.9029C95.833 60.1127 95.781 60.3376 95.781 60.5776V60.9632C95.781 61.2921 95.8377 61.5708 95.9511 61.7995C96.0664 62.0263 96.2261 62.1993 96.4302 62.3183C96.6344 62.4355 96.8716 62.4941 97.1418 62.4941C97.3176 62.4941 97.4764 62.4695 97.6181 62.4204C97.7617 62.3694 97.8855 62.2938 97.9895 62.1936C98.0934 62.0915 98.1738 61.9649 98.2305 61.8137L98.8768 61.9951C98.8088 62.2144 98.6945 62.4072 98.5338 62.5735C98.3732 62.7379 98.1747 62.8664 97.9385 62.959C97.7022 63.0498 97.4367 63.0951 97.1418 63.0951ZM100.632 60.3849V63.0044H99.9626V58.6498H100.609V59.3302H100.666C100.768 59.1091 100.923 58.9314 101.131 58.7973C101.339 58.6612 101.607 58.5931 101.936 58.5931C102.231 58.5931 102.489 58.6536 102.71 58.7746C102.931 58.8936 103.103 59.0751 103.226 59.3189C103.349 59.5608 103.41 59.867 103.41 60.2374V63.0044H102.741V60.2828C102.741 59.9407 102.652 59.6742 102.474 59.4833C102.297 59.2905 102.053 59.1942 101.743 59.1942C101.529 59.1942 101.339 59.2405 101.17 59.3331C101.004 59.4257 100.873 59.5608 100.776 59.7385C100.68 59.9161 100.632 60.1316 100.632 60.3849ZM104.633 63.0044V58.6498H105.302V63.0044H104.633ZM104.973 57.9241C104.842 57.9241 104.73 57.8797 104.635 57.7908C104.543 57.702 104.497 57.5952 104.497 57.4705C104.497 57.3457 104.543 57.239 104.635 57.1501C104.73 57.0613 104.842 57.0169 104.973 57.0169C105.103 57.0169 105.215 57.0613 105.307 57.1501C105.402 57.239 105.449 57.3457 105.449 57.4705C105.449 57.5952 105.402 57.702 105.307 57.7908C105.215 57.8797 105.103 57.9241 104.973 57.9241ZM108.171 63.0951C107.809 63.0951 107.488 63.0034 107.21 62.8201C106.932 62.6349 106.715 62.3741 106.558 62.0377C106.401 61.6994 106.323 61.2996 106.323 60.8385C106.323 60.3811 106.401 59.9842 106.558 59.6478C106.715 59.3113 106.933 59.0515 107.213 58.8681C107.493 58.6848 107.816 58.5931 108.183 58.5931C108.466 58.5931 108.69 58.6404 108.855 58.7349C109.021 58.8275 109.148 58.9333 109.235 59.0524C109.323 59.1696 109.392 59.266 109.441 59.3416H109.498V57.1983H110.167V63.0044H109.521V62.3353H109.441C109.392 62.4147 109.322 62.5149 109.232 62.6358C109.141 62.7549 109.011 62.8617 108.843 62.9562C108.675 63.0488 108.451 63.0951 108.171 63.0951ZM108.262 62.4941C108.53 62.4941 108.757 62.4242 108.943 62.2843C109.128 62.1426 109.269 61.9469 109.365 61.6975C109.461 61.4461 109.51 61.156 109.51 60.8271C109.51 60.502 109.462 60.2176 109.368 59.9738C109.273 59.7281 109.133 59.5372 108.948 59.4011C108.763 59.2631 108.534 59.1942 108.262 59.1942C107.979 59.1942 107.742 59.2669 107.553 59.4125C107.366 59.5561 107.225 59.7517 107.131 59.9993C107.038 60.245 106.992 60.5209 106.992 60.8271C106.992 61.1371 107.039 61.4187 107.134 61.6719C107.23 61.9233 107.372 62.1237 107.559 62.273C107.748 62.4204 107.982 62.4941 108.262 62.4941ZM113.255 63.0951C112.861 63.0951 112.516 63.0016 112.22 62.8144C111.925 62.6273 111.694 62.3656 111.528 62.0292C111.364 61.6927 111.281 61.2996 111.281 60.8498C111.281 60.3962 111.364 60.0002 111.528 59.6619C111.694 59.3236 111.925 59.0609 112.22 58.8738C112.516 58.6867 112.861 58.5931 113.255 58.5931C113.648 58.5931 113.992 58.6867 114.286 58.8738C114.583 59.0609 114.814 59.3236 114.978 59.6619C115.145 60.0002 115.228 60.3962 115.228 60.8498C115.228 61.2996 115.145 61.6927 114.978 62.0292C114.814 62.3656 114.583 62.6273 114.286 62.8144C113.992 63.0016 113.648 63.0951 113.255 63.0951ZM113.255 62.4941C113.553 62.4941 113.799 62.4175 113.992 62.2645C114.184 62.1114 114.327 61.9101 114.42 61.6606C114.512 61.4111 114.559 61.1409 114.559 60.8498C114.559 60.5587 114.512 60.2875 114.42 60.0362C114.327 59.7848 114.184 59.5816 113.992 59.4266C113.799 59.2716 113.553 59.1942 113.255 59.1942C112.956 59.1942 112.71 59.2716 112.517 59.4266C112.325 59.5816 112.182 59.7848 112.089 60.0362C111.997 60.2875 111.95 60.5587 111.95 60.8498C111.95 61.1409 111.997 61.4111 112.089 61.6606C112.182 61.9101 112.325 62.1114 112.517 62.2645C112.71 62.4175 112.956 62.4941 113.255 62.4941Z" fill="#9CA3AF"/>
</svg>
